<svg version="1.1" id="Layer_1" xmlns="http://www.w3.org/2000/svg" xmlns:xlink="http://www.w3.org/1999/xlink" x="0px" y="0px"
	 width="100%" viewBox="0 0 512 512" enable-background="new 0 0 512 512" xml:space="preserve">
<path fill="#000000" opacity="1.000000" stroke="none" 
	d="
M216.966690,91.965149 
	C221.052582,99.839439 219.054535,108.324844 219.265396,116.547272 
	C219.482269,125.004715 222.077301,132.198685 228.413300,137.894577 
	C234.597412,143.453918 238.625687,150.250443 239.530197,158.539612 
	C240.511169,167.529449 243.719070,175.989868 245.288788,184.817139 
	C248.462860,202.666519 247.079544,220.694595 247.089676,238.660400 
	C247.092758,244.146286 246.957565,249.678116 246.253647,255.106949 
	C245.365341,261.957947 250.133331,265.272858 254.079788,269.219055 
	C254.863052,270.002258 255.992752,270.389984 256.755554,269.561127 
	C260.171722,265.849091 265.169647,263.057648 265.067383,257.104095 
	C264.855682,244.779465 264.296021,232.459030 264.207184,220.134521 
	C264.095734,204.667618 263.913422,189.175705 268.556824,174.123840 
	C270.376770,168.224396 273.729828,163.254028 277.691162,158.777390 
	C285.159790,150.337234 288.821503,140.878494 287.748962,129.493729 
	C287.048737,122.061012 288.548920,114.488441 286.708435,107.096428 
	C285.529907,102.363014 283.884827,97.828697 279.902039,94.611832 
	C277.977112,93.057076 276.222076,91.620079 273.248444,92.050606 
	C269.839966,92.544106 268.453339,89.491676 267.315521,86.912598 
	C266.228943,84.449722 266.496216,81.908318 268.666351,80.058937 
	C270.925415,78.133766 273.605408,78.241302 276.213104,79.278023 
	C277.819275,79.916580 279.538635,81.258644 279.316101,82.875877 
	C278.457336,89.115906 283.380310,89.912155 286.927551,91.996017 
	C289.753265,90.602524 289.870331,88.356972 289.751251,85.918259 
	C289.573029,82.268509 291.188995,79.681137 294.880493,79.059875 
	C298.264404,78.490372 300.370605,80.550102 301.023193,83.604591 
	C301.790253,87.194725 299.939423,89.627495 296.611237,91.035828 
	C291.002075,93.409370 290.410309,94.541557 292.319092,100.012009 
	C297.133240,113.808990 295.456207,128.040833 294.800079,142.102173 
	C294.359924,151.535706 287.612518,158.455170 282.427856,165.688889 
	C275.877838,174.827545 273.851837,184.852509 274.145172,196.593353 
	C280.659058,188.482193 286.803070,181.098251 292.636353,173.476486 
	C296.691162,168.178436 301.327393,163.831497 307.768158,161.720673 
	C318.944855,158.057724 325.896301,150.823105 328.686066,139.097931 
	C330.815247,130.149200 333.788391,128.285812 342.773621,127.950020 
	C345.485596,127.848679 347.317841,127.215164 348.902374,124.715340 
	C351.515259,120.593277 355.348724,119.785622 358.686188,121.992432 
	C362.397552,124.446472 363.933746,128.988022 362.184265,132.334106 
	C360.078949,136.360794 356.202789,137.420517 351.480194,135.236374 
	C350.725983,134.887543 350.040985,134.387924 349.284424,134.045441 
	C342.873352,131.143478 337.035767,132.960007 335.719940,139.732529 
	C332.656525,155.499954 322.985748,164.742325 308.781158,170.520584 
	C304.040039,172.449219 300.850037,176.602631 297.737213,180.483856 
	C291.382111,188.407761 285.371735,196.607056 279.091675,204.592560 
	C275.417236,209.264923 273.724762,214.329758 274.153839,220.347733 
	C274.778290,229.105438 274.950470,237.895386 275.308380,246.500076 
	C277.233429,247.174927 277.929993,245.954102 278.817749,245.350266 
	C286.343964,240.230972 294.623322,237.191788 303.729340,237.904251 
	C312.153748,238.563354 318.136597,235.564056 322.663422,228.544724 
	C326.364136,222.806351 330.862122,217.632065 335.383209,212.496307 
	C340.571533,206.602524 346.718567,202.645569 354.777771,202.612015 
	C360.333130,202.588882 363.809479,200.145905 365.574402,194.895462 
	C366.527039,192.061356 368.037109,189.414505 368.988373,186.580032 
	C371.338135,179.578339 375.084534,173.676025 381.369659,169.545090 
	C382.464294,168.825623 383.395508,167.808289 384.270599,166.812851 
	C387.550598,163.081802 387.290436,161.282883 382.748322,159.333694 
	C374.896667,155.964249 366.597351,154.169708 358.145844,153.096146 
	C354.797455,152.670807 351.915924,153.670975 349.621857,156.269669 
	C346.206024,160.139069 342.725830,163.951569 339.286041,167.799957 
	C337.928711,169.318497 336.555908,171.194443 334.365356,169.243149 
	C332.393250,167.486450 333.940216,165.914841 335.140472,164.541580 
	C338.975922,160.153305 342.728699,155.680664 346.771332,151.489365 
	C350.072693,148.066605 354.292023,146.502930 359.072876,147.543701 
	C368.346771,149.562592 377.582489,151.752792 386.363770,155.483261 
	C394.019897,158.735718 395.073975,162.123703 389.591156,168.142456 
	C386.578339,171.449753 386.102600,173.938843 388.990631,177.506622 
	C391.373535,180.450409 393.329926,183.825638 394.980530,187.248306 
	C396.267761,189.917480 397.191498,193.038361 394.740448,195.695892 
	C393.567291,196.967941 391.886139,196.749252 390.614929,195.769653 
	C387.902161,193.679169 384.998199,190.920898 386.290253,187.465363 
	C388.209290,182.333038 385.205841,179.770508 382.618652,176.669189 
	C379.819458,177.015045 378.917053,179.024231 378.040955,180.988098 
	C375.255005,187.233154 373.078400,193.691620 371.074890,200.230713 
	C370.083984,203.464905 370.887665,205.135147 374.149902,205.333405 
	C384.130127,205.939972 394.121918,206.086487 404.116058,205.666840 
	C404.602356,205.646408 405.209259,205.577484 405.543701,205.284393 
	C414.773468,197.196487 425.845703,201.514572 436.148895,200.748856 
	C438.730225,200.557022 441.035309,201.532120 440.921112,204.542328 
	C440.803253,207.650726 438.563934,208.671692 435.665955,208.476364 
	C431.567413,208.200073 427.531464,208.400558 423.549194,206.441132 
	C419.612122,204.503983 415.253052,204.353378 411.105835,208.389221 
	C415.841888,211.423447 418.233063,216.724640 424.657318,217.140427 
	C429.781769,217.472107 433.194092,221.825363 432.410400,225.822266 
	C431.653107,229.684647 429.197388,232.024231 425.156555,232.169861 
	C420.615967,232.333527 417.052704,228.539917 416.708893,223.428604 
	C416.327698,217.761169 409.979370,212.466248 404.251221,212.683960 
	C392.094818,213.145935 379.960754,212.466385 367.840332,211.559769 
	C365.681152,211.398270 363.519440,211.215485 361.374634,210.926208 
	C351.560822,209.602509 344.294464,213.437622 338.829987,221.534363 
	C334.591766,227.814117 329.702362,233.671371 326.284790,241.010529 
	C332.659119,242.643173 338.033417,242.928406 342.429108,237.949219 
	C343.420502,236.826233 344.709534,235.922882 345.525513,234.695114 
	C351.994507,224.961197 361.251343,221.490067 372.579926,222.134109 
	C376.103943,222.334457 379.231415,222.911301 381.335236,225.945404 
	C383.771271,229.458694 387.693329,231.896057 388.723938,236.452393 
	C389.074677,238.002823 390.893372,237.739258 392.071350,238.243500 
	C394.782318,239.403915 397.125275,240.871445 397.298431,244.245071 
	C397.473114,247.648346 394.366608,251.734650 391.429291,251.946793 
	C388.666199,252.146347 385.126495,248.173157 384.689240,244.320694 
	C384.360626,241.425354 385.159698,238.523270 383.059814,235.733002 
	C375.260010,225.368988 361.349670,225.035995 353.092896,235.229416 
	C352.149628,236.393906 350.922394,237.385498 350.208008,238.669373 
	C343.870392,250.059006 333.589111,250.433350 322.450195,248.952316 
	C316.022827,248.097717 309.528900,247.749832 303.068695,247.134476 
	C295.902222,246.451797 290.057831,248.790649 285.342651,254.317871 
	C277.236298,263.820343 267.831940,272.155884 260.152435,282.039459 
	C257.720337,285.169617 256.018036,285.397156 253.177460,282.273041 
	C242.648315,270.692932 230.303513,260.892944 220.287811,248.772552 
	C216.359909,244.019257 210.994202,241.910599 204.730682,242.278915 
	C202.571320,242.405869 200.355713,242.030823 198.239365,242.359238 
	C186.792587,244.135529 178.466309,239.225510 171.205399,230.839203 
	C154.938553,212.051086 157.328522,215.820953 135.221680,215.288620 
	C125.611015,215.057175 115.941872,216.371185 106.394951,213.643799 
	C102.168739,212.436447 96.510941,218.087128 96.465683,222.790634 
	C96.429237,226.578064 95.131088,229.617233 91.603813,231.405380 
	C88.704468,232.875198 86.123657,232.231995 83.782738,230.157227 
	C78.955177,225.878571 80.115852,220.149048 86.718330,217.885742 
	C92.241936,215.992279 96.633385,212.649490 101.061340,209.148895 
	C97.640884,204.853882 93.543625,203.900803 89.423691,206.626480 
	C84.935135,209.596024 80.093704,208.250031 75.379707,208.019653 
	C73.529526,207.929230 72.741486,206.164108 72.810890,204.291885 
	C72.881561,202.385513 73.874649,200.815292 75.745781,200.847305 
	C86.365402,201.029037 97.500130,196.932281 107.038658,205.693665 
	C112.494560,210.705048 119.818832,208.273056 126.341843,208.383102 
	C134.161133,208.514999 141.990463,207.992035 149.816574,207.797653 
	C157.375961,207.609909 163.832123,210.247269 169.211090,215.543610 
	C173.960464,220.220001 178.680222,224.926743 183.456772,229.575180 
	C186.297180,232.339386 189.589188,234.386154 193.715851,233.857162 
	C209.679901,231.810760 223.392654,235.997482 234.356369,248.127869 
	C234.657074,248.460556 235.189957,248.583389 236.925552,249.485397 
	C236.925552,239.018829 236.946243,229.292480 236.905029,219.566422 
	C236.898224,217.961716 235.732605,216.873840 234.748749,215.731766 
	C222.559448,201.581757 209.256699,188.472992 196.501373,174.852600 
	C193.253510,171.384460 188.732956,170.220383 184.322250,169.545456 
	C169.314407,167.248932 162.335159,158.013092 160.459305,143.590302 
	C159.160965,133.607864 153.567215,131.043427 144.076706,135.398148 
	C142.585571,136.082367 140.937241,136.806763 139.352890,136.826843 
	C135.863205,136.871048 133.054520,135.126877 132.212784,131.706070 
	C131.293869,127.971703 133.396500,125.307014 136.677216,123.680893 
	C139.861481,122.102600 142.793091,122.788254 144.354355,125.943047 
	C146.304337,129.883255 149.687805,128.710754 152.634476,128.756271 
	C163.028931,128.916870 163.415695,129.139725 165.982620,139.339218 
	C166.428879,141.112335 166.882324,142.883881 167.304443,144.662781 
	C169.442856,153.674591 174.135925,160.086441 184.003159,161.481308 
	C195.185059,163.062027 203.323792,169.470016 210.727692,177.625824 
	C218.978668,186.714722 227.958771,195.141739 237.502792,204.743530 
	C236.911545,189.707275 237.163620,175.813461 223.740158,166.730560 
	C220.158981,164.307388 217.109009,161.034363 213.387894,158.894470 
	C200.313583,151.375809 195.940903,139.503754 195.695282,125.310295 
	C195.646561,122.495377 194.992126,119.690582 194.948685,116.876007 
	C194.821259,108.621750 190.557114,103.672661 183.024490,100.905815 
	C179.441116,99.589592 176.045074,97.749825 172.603943,96.065964 
	C171.039841,95.300598 169.649399,94.246758 170.545776,92.170654 
	C171.424286,90.135925 173.151123,90.235985 174.779129,90.917198 
	C180.766068,93.422318 186.794083,95.854828 192.643234,98.655899 
	C197.664032,101.060295 199.974960,105.618874 201.309616,110.855942 
	C203.213898,118.328125 203.094070,126.033409 204.126251,133.605988 
	C205.042648,140.329269 207.850510,145.668457 213.408875,149.431259 
	C218.856537,153.119125 224.466232,156.567612 230.491470,160.433411 
	C231.156693,155.995621 229.812302,152.971970 228.178101,150.085175 
	C227.198837,148.355301 226.154724,146.513107 224.693756,145.228775 
	C213.973099,135.804291 211.788910,123.552490 212.926407,110.215782 
	C213.675446,101.433449 212.509674,93.371849 206.044113,86.650940 
	C204.012619,84.539223 204.056442,81.632828 206.167252,79.373756 
	C208.143890,77.258301 210.634933,76.546333 213.418335,78.024063 
	C216.294525,79.551064 216.849884,82.100052 215.957748,84.848740 
	C215.163528,87.295769 214.028549,89.542839 216.757843,91.808304 
	C216.993088,91.995346 216.966690,91.965149 216.966690,91.965149 
z"/>
<path fill="#000000" opacity="1.000000" stroke="none" 
	d="
M313.056732,269.959595 
	C324.487549,272.009064 334.983215,271.559967 344.422180,264.435211 
	C352.285065,258.500153 361.004547,258.589142 370.126495,261.241119 
	C379.162231,263.868042 388.264679,265.601776 397.366608,260.946960 
	C399.518280,259.846588 401.289703,258.804199 402.654083,256.735382 
	C404.752594,253.553345 407.599915,251.211914 411.781586,251.821869 
	C414.651062,252.240433 416.797211,253.790756 417.213440,256.851593 
	C417.621582,259.852844 416.291870,262.107239 413.448700,263.163635 
	C410.161743,264.384918 406.669403,265.569977 403.221069,264.951538 
	C400.325348,264.432220 397.840729,264.980896 395.587158,266.296082 
	C387.904846,270.779602 379.774963,270.237427 371.962311,267.722870 
	C361.125397,264.234924 351.919037,266.144775 343.028992,273.024078 
	C331.346893,282.063934 318.000153,280.349426 304.703857,277.848755 
	C303.397430,277.603027 302.112915,277.234467 300.825287,276.896088 
	C283.470703,272.335602 270.482666,282.195038 270.358124,300.424866 
	C270.170258,327.921692 270.230408,355.420746 270.318298,382.918457 
	C270.343231,390.724640 269.429382,398.606262 271.321686,406.321106 
	C273.442657,414.968292 278.650696,420.752167 287.504211,422.773163 
	C294.885132,424.457977 301.884003,427.080902 308.171356,431.286346 
	C316.147034,436.621063 324.914398,438.791260 334.386536,439.922028 
	C346.273132,441.341034 357.576660,445.762054 369.204895,448.601318 
	C369.732941,448.730225 370.127411,449.406219 371.078979,450.283875 
	C366.714996,451.863586 362.687897,452.071838 358.674286,452.085480 
	C317.345428,452.225800 276.016510,452.378967 234.687515,452.409698 
	C206.861969,452.430389 179.036240,452.269196 151.210709,452.160767 
	C148.753143,452.151184 146.196228,452.435150 143.831360,450.682068 
	C144.517303,448.254395 146.750473,448.157318 148.502594,447.826569 
	C159.212265,445.804718 169.404099,442.460907 179.046051,437.265259 
	C185.131165,433.986206 191.868652,432.943207 198.811646,432.642120 
	C212.455551,432.050415 223.701645,425.787231 233.405991,416.647888 
	C239.287994,411.108307 240.494019,403.561279 240.523483,395.943970 
	C240.638794,366.120575 240.722733,336.295319 240.487030,306.473389 
	C240.418304,297.777191 238.930222,289.308014 232.758987,282.264648 
	C227.330978,276.069519 220.951065,273.870667 213.091187,275.967255 
	C204.535217,278.249542 195.962250,279.959381 186.995514,279.485504 
	C180.942413,279.165649 175.378754,277.562195 170.703781,273.930939 
	C161.647064,266.896179 152.221283,264.565979 140.847321,268.033264 
	C132.184753,270.673981 123.032295,270.792999 114.894386,265.200592 
	C113.256523,264.075043 111.378395,264.396027 109.561989,264.325012 
	C107.242836,264.234375 104.878777,264.565094 102.637016,263.681946 
	C98.702385,262.131897 96.472008,257.565491 98.104103,254.432877 
	C99.771729,251.232056 103.944969,250.346466 107.696663,252.672501 
	C109.505722,253.794144 111.611366,255.125320 112.508331,256.903534 
	C115.411789,262.659546 120.739151,263.212769 125.991577,263.595276 
	C132.516937,264.070465 138.962082,262.900879 145.217239,261.058624 
	C152.862885,258.806854 160.291504,259.199738 166.738602,263.878174 
	C178.438522,272.368500 190.939621,271.947754 203.954208,268.365967 
	C206.682449,267.615143 209.451630,266.995911 212.143921,266.134644 
	C222.529800,262.812164 231.511490,265.367065 239.376022,272.563049 
	C241.586334,274.585480 243.538193,276.891907 245.763123,278.896576 
	C251.790375,284.327087 255.949448,289.510925 249.495300,297.957947 
	C246.042374,302.477051 247.610016,308.545380 251.793213,312.628601 
	C258.835907,319.502960 260.883911,327.683075 260.295868,337.183563 
	C259.823120,344.820679 261.072906,352.650513 259.890717,360.131287 
	C258.885559,366.492035 256.741547,372.677185 257.418091,379.239471 
	C258.870728,393.329987 256.761566,407.574829 259.271698,421.608398 
	C259.974731,425.539062 261.127319,429.340942 262.642609,433.075134 
	C267.588684,445.263885 281.303833,447.450043 291.247375,446.262299 
	C291.825500,446.193268 292.348511,445.662842 293.219421,445.161682 
	C291.475708,442.836639 288.993744,442.236053 286.794128,441.338837 
	C282.769958,439.697418 278.902222,437.790588 275.183868,435.544281 
	C266.675446,430.404175 261.379547,423.220642 260.451019,413.085236 
	C259.139984,398.774567 258.412231,384.132294 260.532928,370.213165 
	C262.568207,356.854614 261.936798,343.732422 262.550415,330.513214 
	C262.867065,323.690552 260.558228,317.915955 255.773804,312.875458 
	C248.904831,305.638763 248.664536,301.489227 254.549667,293.532745 
	C260.794891,285.089478 267.686646,277.175201 275.258453,269.865021 
	C281.191589,264.136841 287.918152,262.272278 295.888214,264.899353 
	C301.415558,266.721252 306.850769,268.893524 313.056732,269.959595 
M248.827255,429.774048 
	C245.540024,440.221985 241.818787,442.897095 231.306015,442.312622 
	C229.448746,442.209320 227.578461,442.110138 226.023285,443.294525 
	C221.055054,447.078278 215.314651,448.319550 209.203995,448.486206 
	C217.568710,448.689636 225.891296,448.642334 234.212708,448.719238 
	C236.623703,448.741516 238.070953,447.791443 239.530228,445.824951 
	C243.624222,440.308075 248.672684,435.492310 251.152603,428.357239 
	C258.439606,438.060577 246.101425,441.059235 245.618607,448.251160 
	C252.328690,448.251160 258.828827,448.251160 265.775665,448.251160 
	C254.181580,437.914948 251.471176,424.099213 249.262421,409.215881 
	C246.830582,416.413422 249.952408,422.681885 248.827255,429.774048 
M295.148773,438.249969 
	C298.572510,440.058960 302.216614,441.705261 301.101776,446.852875 
	C305.852509,443.439056 309.422333,447.726379 313.447571,448.246490 
	C317.779297,448.806244 322.071381,448.573059 326.381744,448.617340 
	C330.504303,448.659668 334.627625,448.626465 338.750580,448.626465 
	C338.790955,448.224884 338.831299,447.823334 338.871674,447.421753 
	C324.660278,447.878937 312.253754,442.272339 299.857758,436.517975 
	C295.618927,434.550293 291.151123,433.075623 285.090454,432.930786 
	C288.971130,434.977875 291.735779,436.436218 295.148773,438.249969 
M193.961212,444.258820 
	C203.268723,442.888245 213.377640,444.854523 221.272598,437.546875 
	C206.485733,442.414673 189.861694,437.553314 175.400269,446.384918 
	C181.567413,445.699585 187.314499,445.060913 193.961212,444.258820 
M237.159622,431.950165 
	C234.097580,432.985413 231.035538,434.020691 227.123779,435.343262 
	C239.690216,436.824921 240.329437,436.623962 242.069275,431.019135 
	C240.514816,430.362976 239.239716,431.458252 237.159622,431.950165 
z"/>
<path fill="#000000" opacity="1.000000" stroke="none" 
	d="
M124.629715,177.767548 
	C125.996758,175.841965 125.488693,174.342880 124.520744,172.849579 
	C123.978378,172.012848 123.483879,171.142838 123.005798,170.267059 
	C117.136772,159.515930 118.160759,156.744797 129.647720,152.331207 
	C130.888519,151.854477 132.191147,151.533508 133.417923,151.026230 
	C148.368530,144.843994 153.337036,152.278244 160.662872,163.395905 
	C161.459900,164.605438 161.515503,166.017899 160.209076,166.967682 
	C158.634171,168.112625 157.357559,167.257095 156.370636,165.973328 
	C154.444748,163.468155 152.602371,160.898941 150.701935,158.373932 
	C147.570831,154.213776 143.659119,152.632675 138.461105,154.218475 
	C134.622833,155.389435 130.892746,156.727417 127.375542,158.653030 
	C124.865082,160.027466 124.177071,161.852753 125.852425,164.372147 
	C127.320663,166.580109 128.303772,169.410721 130.790192,170.514221 
	C138.216522,173.810089 141.357941,180.266724 143.893616,187.277771 
	C145.024673,190.405106 146.175003,193.526947 147.221710,196.682739 
	C147.807892,198.450043 148.361542,200.354950 145.858002,201.222061 
	C143.488083,202.042877 142.533081,200.555786 141.851318,198.669357 
	C140.325180,194.446564 138.801666,190.222794 137.256073,186.007126 
	C136.855698,184.915024 136.448013,183.815552 135.921204,182.781906 
	C134.735275,180.455032 133.344467,176.796692 130.613571,178.062241 
	C127.835358,179.349716 125.124847,182.487686 126.385246,186.573547 
	C126.799934,187.917877 127.013016,189.115784 126.445244,190.422806 
	C125.222397,193.237823 123.820686,195.912918 120.402885,196.459610 
	C118.563843,196.753784 117.028702,195.933899 116.375221,194.200180 
	C115.175285,191.016739 116.346146,188.079803 118.611107,186.050674 
	C121.181801,183.747696 122.830566,180.971542 124.629715,177.767548 
z"/>
<path fill="#000000" opacity="1.000000" stroke="none" 
	d="
M243.596451,134.478760 
	C241.082443,131.345718 238.993103,128.596344 234.868149,127.800209 
	C231.386887,127.128304 229.872879,124.080238 230.450974,120.460358 
	C230.982635,117.131279 233.211075,115.671257 236.461823,115.681427 
	C240.376190,115.693672 242.564606,118.190613 242.559753,121.605217 
	C242.553009,126.361794 246.362976,128.349060 248.508118,131.523697 
	C249.405746,132.852112 250.909317,132.797791 251.984436,131.676361 
	C254.680115,128.864548 258.166199,126.590263 257.693176,121.770676 
	C257.362427,118.400925 258.937042,115.877052 262.661682,115.542664 
	C266.201965,115.224838 269.076599,116.505119 269.898773,120.188538 
	C270.676636,123.673363 269.169586,126.514481 265.853302,127.894890 
	C256.872467,131.633209 251.799561,137.769501 252.253799,147.977615 
	C252.360901,150.384628 253.949875,154.693558 249.794632,154.858414 
	C244.936386,155.051117 247.091248,150.480667 246.820450,147.928436 
	C246.339523,143.395950 247.811661,138.490433 243.596451,134.478760 
z"/>
<path fill="#000000" opacity="1.000000" stroke="none" 
	d="
M246.619843,74.514679 
	C251.864349,73.942375 255.400162,75.901947 257.324463,80.401283 
	C259.361572,85.164360 258.184753,89.215317 254.029800,92.267578 
	C252.034958,93.732994 251.605362,95.636154 251.594681,97.917603 
	C251.561188,105.063972 251.494614,112.211739 251.291489,119.354713 
	C251.236359,121.293045 252.359329,124.432076 249.185791,124.542259 
	C246.126862,124.648460 246.704300,121.582314 246.629623,119.536629 
	C246.368958,112.396614 246.148041,105.254097 246.028580,98.110573 
	C245.987427,95.649460 245.375626,93.804176 243.350983,92.072968 
	C236.242661,85.994896 237.613312,78.255920 246.619843,74.514679 
z"/>
<path fill="#000000" opacity="1.000000" stroke="none" 
	d="
M319.619354,133.178589 
	C317.541931,139.127335 312.803131,142.580811 309.295654,146.959824 
	C308.164307,148.372299 306.720367,148.306763 305.356812,147.150024 
	C304.081238,146.067963 303.488678,144.806641 304.498047,143.227615 
	C304.854919,142.669373 305.198975,142.056091 305.693481,141.639648 
	C314.157867,134.511734 315.380402,124.762794 315.704132,114.591965 
	C316.117523,101.604721 318.380524,98.641251 330.519043,94.124489 
	C333.631714,92.966248 336.684509,91.646385 339.760620,90.390556 
	C341.676636,89.608337 343.386810,89.576019 344.312469,91.808563 
	C345.221191,94.000259 343.538269,94.833481 342.055481,95.551888 
	C339.216492,96.927338 336.412292,98.546295 333.403473,99.367767 
	C323.701141,102.016739 321.144775,109.058830 321.307281,117.998787 
	C321.398102,122.995056 321.242645,127.972862 319.619354,133.178589 
z"/>
<path fill="#000000" opacity="1.000000" stroke="none" 
	d="
M169.019577,242.984528 
	C165.006561,245.727936 161.989487,243.175934 159.308487,240.779831 
	C156.601364,238.360382 154.375549,235.401306 151.947083,232.671341 
	C145.870605,225.840576 134.530914,227.333099 130.414215,235.475708 
	C129.800842,236.688919 130.183929,237.746017 130.576767,238.820724 
	C131.401855,241.078094 131.529816,243.408615 131.043137,245.698898 
	C130.376556,248.835815 128.645767,251.249725 125.283653,251.836945 
	C122.455086,252.330994 120.561584,250.784607 119.195885,248.443008 
	C117.532448,245.590897 116.891914,242.059372 119.544228,240.209198 
	C125.470871,236.074936 128.695328,229.383286 134.707062,225.395447 
	C139.903442,221.948486 148.188309,221.739304 152.746201,226.029922 
	C158.293335,231.251785 163.419479,236.920868 168.864075,242.698898 
	C169.000397,243.001312 169.019577,242.984528 169.019577,242.984528 
z"/>
<path fill="#000000" opacity="1.000000" stroke="none" 
	d="
M167.663055,122.110138 
	C163.957153,124.029167 159.528488,122.126495 156.838486,125.604553 
	C154.115295,123.568794 151.556244,121.776360 149.134369,119.814560 
	C146.129456,117.380463 145.508224,108.213104 148.061005,105.460510 
	C150.712250,102.601738 156.058792,103.262253 158.115051,107.630241 
	C159.996765,111.627411 162.677811,111.828484 166.102341,111.634026 
	C166.765320,111.596382 167.434204,111.661606 168.100342,111.680466 
	C170.371399,111.744781 172.544983,112.182861 173.419128,114.586601 
	C174.323486,117.073433 172.625534,118.678505 170.975342,120.115036 
	C170.109940,120.868408 169.024734,121.369293 167.663055,122.110138 
z"/>
<path fill="#000000" opacity="1.000000" stroke="none" 
	d="
M328.703186,89.617554 
	C326.795746,92.662415 325.491058,95.353508 322.145569,90.977440 
	C321.005463,89.486084 317.829681,89.637558 315.666565,88.819962 
	C312.927521,87.784660 310.366394,86.299011 310.587524,82.847244 
	C310.806824,79.424225 313.798676,78.585915 316.327148,78.312462 
	C321.358734,77.768295 325.965027,76.987915 329.919495,73.217018 
	C332.086212,71.150856 334.645630,73.269585 336.467926,75.014824 
	C338.526550,76.986382 339.449188,79.313026 338.094055,82.212013 
	C336.241638,86.174850 332.801544,87.994133 328.703186,89.617554 
z"/>
<path fill="#000000" opacity="1.000000" stroke="none" 
	d="
M348.854431,117.958176 
	C345.639587,119.987396 342.319336,120.483780 339.070404,120.988091 
	C335.389954,121.559380 332.393677,120.182213 331.344116,116.381958 
	C330.343689,112.759453 332.244629,110.229767 335.470947,108.897469 
	C337.866882,107.908058 339.644043,106.599449 341.095917,104.356598 
	C342.787415,101.743637 345.512604,100.113297 348.772675,101.160728 
	C352.051239,102.214111 352.328918,105.155754 352.279175,108.112343 
	C352.219879,111.638733 352.051392,115.112373 348.854431,117.958176 
z"/>
<path fill="#000000" opacity="1.000000" stroke="none" 
	d="
M397.639648,159.827728 
	C403.292572,154.377655 410.079407,154.513977 413.642334,159.822449 
	C416.092773,163.473389 415.777069,168.570633 412.899750,171.810486 
	C410.068726,174.998230 405.080048,175.913940 401.060486,173.780930 
	C396.893982,171.569962 395.419281,167.922852 396.177155,163.372879 
	C396.362427,162.260773 396.989227,161.222214 397.639648,159.827728 
z"/>
<path fill="#000000" opacity="1.000000" stroke="none" 
	d="
M186.396133,75.649368 
	C188.754303,76.473946 190.798706,77.114388 192.879852,77.596016 
	C195.529877,78.209328 197.582932,79.564430 197.949921,82.353394 
	C198.307358,85.069626 196.883957,87.291779 194.562744,88.511780 
	C191.766754,89.981323 189.418320,91.783798 187.502563,95.120720 
	C186.950562,88.908546 181.643494,87.755249 178.120880,84.790062 
	C174.402954,81.660446 173.714218,77.722366 176.175522,74.812500 
	C178.665176,71.869087 182.139542,72.072929 186.396133,75.649368 
z"/>
<path fill="#000000" opacity="1.000000" stroke="none" 
	d="
M109.846336,175.098892 
	C100.906532,174.344345 97.484169,170.487274 98.831200,163.174942 
	C99.887321,157.441864 105.804153,154.525803 110.965561,157.194595 
	C115.061729,159.312592 118.107285,165.925629 117.017830,170.348419 
	C116.145569,173.889511 113.390831,174.752014 109.846336,175.098892 
z"/>
<path fill="#000000" opacity="1.000000" stroke="none" 
	d="
M429.202942,195.805817 
	C425.975647,196.050674 423.155609,196.309189 420.341278,196.257095 
	C417.593414,196.206253 415.479858,194.863419 414.886139,192.049820 
	C414.325775,189.394272 415.834320,187.483231 418.048767,186.390625 
	C421.010803,184.929153 423.777557,183.397110 426.382080,181.214813 
	C429.704559,178.430984 432.974701,180.216003 435.361420,183.330307 
	C437.884186,186.622147 437.300415,190.787582 434.088226,193.595474 
	C432.794891,194.726013 431.229584,195.255707 429.202942,195.805817 
z"/>
<path fill="#000000" opacity="1.000000" stroke="none" 
	d="
M84.760857,179.855133 
	C88.986649,182.063782 91.943306,185.454697 96.035728,187.352783 
	C97.968124,188.249039 98.974976,190.655533 98.199974,192.980225 
	C97.426575,195.300125 95.353279,196.089020 93.074516,196.243713 
	C89.546471,196.483200 86.068008,195.978607 82.816628,194.681641 
	C79.184242,193.232681 76.462410,190.618622 76.915237,186.408936 
	C77.362755,182.248642 80.191139,180.096924 84.760857,179.855133 
z"/>
<path fill="#000000" opacity="1.000000" stroke="none" 
	d="
M181.965698,192.553772 
	C177.907150,194.933533 174.214478,197.155289 170.545059,199.414810 
	C169.413559,200.111572 168.185410,201.238754 167.048233,199.866302 
	C165.721039,198.264572 167.099777,197.072372 168.289627,196.183350 
	C170.013397,194.895432 171.831329,193.721252 173.676697,192.610947 
	C177.361053,190.394180 180.802124,188.378952 181.643066,183.315475 
	C182.251007,179.655045 185.727844,178.142319 189.443298,179.000259 
	C192.922577,179.803665 194.916336,182.489594 194.785919,185.919891 
	C194.641602,189.715607 191.971802,191.774261 188.276596,192.229446 
	C186.320160,192.470428 184.320618,192.361328 181.965698,192.553772 
z"/>
<path fill="#000000" opacity="1.000000" stroke="none" 
	d="
M327.918396,195.033829 
	C329.035583,195.798126 329.912811,196.293533 330.664215,196.936142 
	C331.437683,197.597656 332.084900,198.468033 331.444977,199.530914 
	C330.699158,200.769684 329.547180,200.769958 328.415649,200.122604 
	C325.821747,198.638596 323.231812,197.143570 320.694641,195.565567 
	C317.427765,193.533768 314.182983,191.929398 310.064270,192.056335 
	C306.689880,192.160309 304.467163,189.736298 304.196716,186.386749 
	C303.952332,183.360291 305.398712,180.795334 308.440155,179.763779 
	C311.685059,178.663223 315.261505,179.644745 315.962341,182.738388 
	C317.477509,189.427002 323.096680,191.450974 327.918396,195.033829 
z"/>
<path fill="#000000" opacity="1.000000" stroke="none" 
	d="
M341.921265,176.405807 
	C350.104706,179.145859 354.594971,184.625381 354.258179,191.016708 
	C354.112762,193.776611 353.569763,196.633438 350.518707,197.372803 
	C347.525299,198.098221 345.503601,196.047104 344.216339,193.548859 
	C341.994843,189.237411 340.762665,184.589417 340.039398,179.810944 
	C339.829865,178.426849 340.106171,177.149185 341.921265,176.405807 
z"/>
<path fill="#000000" opacity="1.000000" stroke="none" 
	d="
M373.771332,122.367661 
	C377.838257,121.064583 380.663818,122.486900 382.741852,125.469063 
	C384.428101,127.888985 384.347473,130.516418 382.635132,132.922546 
	C380.425964,136.026794 377.260315,136.514526 373.753265,135.868225 
	C372.618530,135.659134 371.477814,135.414001 370.331146,135.355667 
	C368.942810,135.285019 367.256592,136.637711 366.252472,134.878128 
	C365.199493,133.032898 366.648132,131.609634 367.869385,130.615677 
	C370.542664,128.439911 370.242249,124.304840 373.771332,122.367661 
z"/>
<path fill="#000000" opacity="1.000000" stroke="none" 
	d="
M187.715240,212.133026 
	C185.609421,209.051376 184.035309,206.121658 183.730545,202.703903 
	C183.497498,200.090515 184.557281,198.083710 187.106064,197.225632 
	C189.812592,196.314453 191.753403,197.762604 192.828796,199.998856 
	C195.247116,205.027618 195.360825,210.164871 193.106277,215.225494 
	C190.292648,215.757614 189.289581,213.788925 187.715240,212.133026 
z"/>
<path fill="#000000" opacity="1.000000" stroke="none" 
	d="
M401.557373,237.015045 
	C398.472565,237.244095 395.821869,237.254013 393.297119,236.261078 
	C391.747284,235.651550 390.090729,234.949814 390.103119,232.934128 
	C390.113037,231.321671 391.154846,230.112747 392.525055,229.419220 
	C396.366516,227.474869 400.496185,227.280869 404.619110,228.068680 
	C406.529755,228.433746 407.884735,229.980209 407.786804,232.011963 
	C407.615814,235.559692 404.944611,236.510574 401.557373,237.015045 
z"/>
<path fill="#000000" opacity="1.000000" stroke="none" 
	d="
M189.835571,119.452820 
	C187.038483,122.510689 184.007004,126.730934 180.334167,124.301254 
	C176.601227,121.831795 179.735168,117.572266 181.413467,114.494423 
	C182.939117,111.696487 184.808868,107.705750 188.848175,109.847115 
	C192.688599,111.883041 191.588150,115.750626 189.835571,119.452820 
z"/>
<path fill="#000000" opacity="1.000000" stroke="none" 
	d="
M185.172546,148.883728 
	C182.129395,146.784195 179.355133,144.889893 177.748856,141.835144 
	C176.422104,139.312042 175.798615,136.565353 178.481659,134.664307 
	C181.233994,132.714172 183.902084,133.638657 185.921280,136.184982 
	C188.271622,139.148911 189.520462,142.521194 189.332993,146.366440 
	C189.206863,148.953934 188.136383,150.115524 185.172546,148.883728 
z"/>
<path fill="#000000" opacity="1.000000" stroke="none" 
	d="
M301.993347,118.956619 
	C300.969635,117.419060 300.107117,116.193871 299.486969,114.856308 
	C298.374176,112.456146 298.771484,110.286430 301.001709,108.704536 
	C303.297394,107.076233 305.366364,107.715370 307.245972,109.547432 
	C309.181580,111.434052 310.651520,113.601593 311.417297,116.220505 
	C311.974701,118.126846 312.978241,120.243141 311.156158,121.792709 
	C309.411682,123.276283 307.366394,122.348450 305.588043,121.387657 
	C304.427917,120.760857 303.368317,119.947906 301.993347,118.956619 
z"/>
<path fill="#000000" opacity="1.000000" stroke="none" 
	d="
M122.700424,233.589523 
	C117.730774,237.743988 112.453033,236.714951 107.398178,235.101349 
	C104.255051,234.097977 103.918999,230.743073 106.305878,228.847519 
	C108.701622,226.944946 119.451088,227.200394 121.609138,229.228989 
	C122.766716,230.317123 123.385910,231.606857 122.700424,233.589523 
z"/>
<path fill="#000000" opacity="1.000000" stroke="none" 
	d="
M217.005127,92.011200 
	C218.225800,89.999016 217.804077,88.078339 217.189041,85.873337 
	C216.218307,82.393105 219.634186,78.255524 223.229050,78.316582 
	C226.647614,78.374649 228.931137,80.163277 229.157562,83.754021 
	C229.348022,86.774734 224.357803,92.090019 221.311935,92.268715 
	C220.158218,92.336411 218.990036,92.157875 217.397568,92.028366 
	C216.966690,91.965149 216.993088,91.995346 217.005127,92.011200 
z"/>
<path fill="#000000" opacity="1.000000" stroke="none" 
	d="
M379.514221,150.913513 
	C375.705292,149.160828 376.206177,146.633331 377.851624,144.193176 
	C379.758057,141.365967 382.067932,138.715225 386.040649,140.332962 
	C388.922119,141.506302 391.569031,143.413040 390.860168,146.971710 
	C390.224243,150.164215 387.542938,151.329666 384.405609,151.270523 
	C382.913544,151.242401 381.423370,151.113297 379.514221,150.913513 
z"/>
<path fill="#000000" opacity="1.000000" stroke="none" 
	d="
M130.303345,145.621674 
	C131.092804,149.634018 128.869278,151.527756 125.854576,151.810303 
	C122.262619,152.146942 118.707649,150.984024 117.383423,147.112640 
	C116.354660,144.105042 118.446587,142.023773 120.791435,140.595245 
	C124.021004,138.627747 126.490013,140.369858 128.608383,142.762772 
	C129.257431,143.495941 129.679184,144.430344 130.303345,145.621674 
z"/>
<path fill="#000000" opacity="1.000000" stroke="none" 
	d="
M306.475586,202.567322 
	C306.787323,199.651611 306.817780,196.784912 310.369934,196.966064 
	C313.112457,197.105911 314.854279,198.889053 315.469910,201.616440 
	C316.381714,205.656143 313.229401,211.746872 308.891266,213.975784 
	C305.949158,210.800186 306.107758,206.908447 306.475586,202.567322 
z"/>
<path fill="#000000" opacity="1.000000" stroke="none" 
	d="
M331.807526,187.266785 
	C327.804749,186.554504 325.326935,184.284271 323.172424,181.438538 
	C320.760101,178.252335 321.840881,175.887527 324.792572,174.051117 
	C327.750275,172.210983 330.182007,172.914627 331.606476,176.164551 
	C332.594177,178.418030 333.571228,180.706772 334.210205,183.072372 
	C334.681335,184.816589 334.809113,186.814438 331.807526,187.266785 
z"/>
<path fill="#000000" opacity="1.000000" stroke="none" 
	d="
M402.243866,279.099457 
	C401.848236,282.881226 400.327911,284.863983 396.608368,283.802155 
	C392.945953,282.756592 388.520935,277.627625 389.307831,275.201782 
	C390.172516,272.536133 392.433929,271.929016 394.955902,272.263336 
	C398.787170,272.771271 401.450439,274.688232 402.243866,279.099457 
z"/>
<path fill="#000000" opacity="1.000000" stroke="none" 
	d="
M168.992859,243.011642 
	C171.450531,241.757233 174.003830,240.798508 176.315689,243.123108 
	C178.774628,245.595612 179.815765,248.782745 179.595779,252.201614 
	C179.476761,254.051575 178.161194,255.092361 176.083023,254.757172 
	C171.853134,254.074936 167.776047,247.932144 168.896942,243.335922 
	C169.019577,242.984528 169.000397,243.001312 168.992859,243.011642 
z"/>
<path fill="#000000" opacity="1.000000" stroke="none" 
	d="
M169.706177,176.349365 
	C171.623398,182.482452 168.157745,187.233078 161.144669,188.156677 
	C160.042343,183.515640 161.523972,179.345963 163.828491,175.565567 
	C165.610428,172.642426 167.725830,174.221161 169.706177,176.349365 
z"/>
<path fill="#000000" opacity="1.000000" stroke="none" 
	d="
M267.965454,142.143723 
	C268.506653,138.696259 270.124084,136.189392 272.023010,133.852005 
	C273.388031,132.171783 275.061188,131.094284 277.182648,132.557465 
	C279.052277,133.846939 279.643646,135.698013 278.667572,137.801025 
	C277.221649,140.916321 274.983978,143.331268 271.794983,144.719345 
	C269.632721,145.660522 268.250000,144.999222 267.965454,142.143723 
z"/>
<path fill="#000000" opacity="1.000000" stroke="none" 
	d="
M298.498138,198.100647 
	C300.685974,197.847748 301.329926,198.914642 301.152191,200.449921 
	C300.805603,203.443497 299.978363,206.343552 298.347290,208.891327 
	C297.039581,210.933975 294.984497,211.819168 292.753448,210.605667 
	C290.244446,209.241013 290.057892,206.824890 291.308136,204.559143 
	C292.854492,201.756683 295.141632,199.563309 298.498138,198.100647 
z"/>
<path fill="#000000" opacity="1.000000" stroke="none" 
	d="
M202.830383,197.721924 
	C206.509155,199.052826 209.054321,201.319077 211.042068,204.267258 
	C212.493927,206.420578 212.166138,208.470764 210.250687,209.978226 
	C208.007355,211.743790 205.896790,210.577362 204.936829,208.466705 
	C203.408707,205.106827 199.357117,202.167801 202.830383,197.721924 
z"/>
<path fill="#000000" opacity="1.000000" stroke="none" 
	d="
M128.360855,288.322876 
	C125.660240,283.961487 127.029221,279.479004 126.978546,275.121338 
	C126.966278,274.066742 127.795227,273.356720 128.935562,273.279236 
	C129.843414,273.217590 130.789139,273.638275 130.885284,274.446320 
	C131.424942,278.982330 132.028961,283.553070 130.496460,288.016754 
	C130.384689,288.342346 129.343231,288.348694 128.360855,288.322876 
z"/>
<path fill="#000000" opacity="1.000000" stroke="none" 
	d="
M385.801880,287.133575 
	C383.347351,289.224823 381.876251,288.679565 381.721832,285.817841 
	C381.543732,282.516937 381.628632,279.200134 381.656982,275.890717 
	C381.667572,274.651917 382.112274,273.507477 383.523865,273.371979 
	C385.217102,273.209351 385.964355,274.445831 386.000549,275.846741 
	C386.094269,279.477386 385.987793,283.113190 385.801880,287.133575 
z"/>
<path fill="#000000" opacity="1.000000" stroke="none" 
	d="
M119.560226,278.049957 
	C119.197510,275.899780 117.075745,276.305206 115.926521,274.732910 
	C117.759079,273.026001 119.747200,272.008240 121.767403,274.069580 
	C124.036247,276.384613 123.145775,278.958344 121.364128,281.255341 
	C119.260506,283.967407 116.881752,285.039825 113.872276,282.623505 
	C114.421455,279.080322 118.564484,280.941345 119.560226,278.049957 
z"/>
</svg>